<svg xmlns="http://www.w3.org/2000/svg" fill="none" viewBox="0 0 128 128"><g opacity=".5"><g opacity=".1"><path fill="#fff" d="M105 86.4l10.2 2.8 7.5 13c.6 1.1.3 2.6-.8 3.3h-.2l-13 7.6c-1 .6-2.5.3-3.3-.8v-.1l-10-17.4c-.7-1.1-.4-2.6.7-3.3h.2l8.6-5zm.5 9l-.5-.5c-.5.5-.8 1-.8 1.6-.1.5 0 1 .3 1.5v.2l.7 1c.4.8.3 1.4-.3 1.8v.1l.3.7c.7-.3 1.3-.2 1.7.5l.1.2.6 1c.3.6.8 1 1.3 1.2.5.2 1 .2 1.6.1h.2l-.1-.7c-.8.2-1.4-.2-2-1v-.1l-.7-1c-.4-.8-1-1.2-1.7-1.2.3-.6.3-1.2 0-1.9l-.1-.2-.6-1c-.5-.9-.5-1.6 0-2.2v-.1l-.5-.5.5.5zm2.6-2.3l.2.7c.8-.2 1.5.2 2 1.1l.6 1c.5.9 1 1.2 1.8 1.1-.4.7-.4 1.4 0 2.1l.7 1.1c.5 1 .4 1.7-.1 2.3l.5.5c.5-.5.8-1 .9-1.6 0-.6 0-1.1-.5-1.8l-.5-1c-.5-.8-.4-1.4.3-1.8l-.4-.8c-.7.5-1.3.3-1.8-.5l-.6-1.1c-.3-.6-.8-1-1.3-1.2-.5-.3-1.1-.3-1.8-.1zM55.3 123.4c1.8-1 2.8-2.9 2.6-4.5a3 3 0 00-.4-1.2l-7.2-12.4 12.3-7.1 5.5 9.4c-.8 0-1.6.3-2.3.8-2.3 1.3-3.3 3.8-2.2 5.7 1.1 1.9 3.8 2.3 6 1 2.3-1.3 3.3-3.8 2.2-5.7a3 3 0 00-.9-1l.3-.1-7.8-13.6c-1.3-2.2-4.7-3.3-6.7-2l-8.2 4.6c-2 1.2-2.8 4.6-1.5 6.9l1.3 2.3 5.4 9.4c-.7 0-1.5.3-2.3.7-2.2 1.3-3.2 4-2.1 5.8 1 1.8 3.8 2.3 6 1zm2.6-4.5l.2-.1-.6-1.1.4 1.2zM13 17.5l4.4 2.9 3.1-1.8-4.4-3 2-1.1 4.5 2.9 3.1-1.8-4.4-3 2-1.1 4.5 2.9 3.1-1.8-4.4-3 4.1-2.3L39 21.7c.6 1.1.2 2.6-1 3.2l-16.6 9.6c-1.1.7-2.6.3-3.2-.8L11 21.3c-.6-1.1-.2-2.6 1-3.2l1-.6zM99 11.4l10.2 2.8 7.5 13c.6 1.2.2 2.7-1 3.4l-13 7.5c-1.1.7-2.7.3-3.4-1l-10-17.3a2.5 2.5 0 011-3.4l8.6-5zm3.8 8l-.6.4 1.3 8.2.6-.4-1.3-8.2zm-3 3.8l-2.6 3.6.4.6 4.4-.4-.5-.8-3.3.5 2-2.7-.4-.8zm4.7-2.7l.5.8 3.4-.6-2.1 2.8.4.8 2.7-3.7-.3-.6-4.6.5z"/><path stroke="#fff" d="M26.4 56.1l-19 11a2 2 0 00-.8 2.7L15.4 85a2 2 0 002.7.7l19-11A2 2 0 0038 72L29 56.8a2 2 0 00-2.7-.7z"/><path fill="#fff" d="M15.4 73.2a2.2 2.2 0 10-2.2-3.9 2.2 2.2 0 002.2 4z"/><mask id="mask0" width="34" height="32" x="5" y="55" maskUnits="userSpaceOnUse"><path fill="#C4C4C4" d="M26.4 56.1l-19 11a2 2 0 00-.8 2.7L15.4 85a2 2 0 002.7.7l19-11A2 2 0 0038 72L29 56.8a2 2 0 00-2.7-.7z"/></mask><g mask="url(#mask0)"><path fill="#fff" d="M19.6 76.7l7 1.7 1.7-9.6 11.4 5.6-23.3 13.4 3.2-11z"/></g><path fill="#fff" d="M68 41.4l10.2 2.8 7.5 13c.6 1.1.3 2.6-.8 3.3h-.2l-13 7.6c-1 .6-2.6.3-3.3-.8v-.1l-10-17.4c-.7-1.1-.4-2.6.7-3.3h.2l8.6-5zm14.5 15L69.2 64l.6 1 13.3-7.6-.6-1zm-1.8-3.1l-13.2 7.6.6 1 13.2-7.6-.6-1zm-10.2-8.9L62.6 49l1.2 2.4.3-.2-.3-1.2c0-.4.2-.7.3-.9l1-.6 1.1-.7 4.3 7.4.4 1c0 .4-.2.7-.7 1l-.3.1.2.3 4-2.3-.1-.3-.3.2c-.4.2-.8.3-1 .2-.3-.1-.5-.4-.9-1l-4.2-7.4 1.3-.8 1.1-.3c.3 0 .6 0 1 .2l.6.8.3-.2-1.4-2.2z"/></g></g></svg>